<svg xmlns="http://www.w3.org/2000/svg" xmlns:xlink="http://www.w3.org/1999/xlink" width="500" zoomAndPan="magnify" viewBox="0 0 375 374.999991" height="500" preserveAspectRatio="xMidYMid meet" version="1.0"><defs><clipPath id="e606345990"><path d="M 40.535156 19 L 334.535156 19 L 334.535156 356.25 L 40.535156 356.25 Z M 40.535156 19 " clip-rule="nonzero"/></clipPath></defs><path fill="#fff8ea" d="M 186.496094 27.398438 L 47.566406 109.359375 L 45.761719 272.476562 L 186.292969 353.039062 L 329.226562 272.679688 L 328.433594 109.5625 Z M 186.496094 27.398438 " fill-opacity="1" fill-rule="evenodd"/><path fill="#ffce57" d="M 238.09375 195.527344 L 282.476562 172.535156 L 281.472656 136.753906 L 142.550781 54.792969 L 97.023438 80.179688 L 238.109375 163.734375 Z M 238.09375 195.527344 " fill-opacity="1" fill-rule="evenodd"/><path fill="#659639" d="M 255.859375 281.179688 L 214.082031 304.566406 L 214.285156 257.191406 L 255.269531 233.601562 Z M 80.085938 247.621094 C 124.46875 266.316406 151.917969 250.261719 162.441406 199.445312 C 115.242188 188.402344 87.792969 204.457031 80.085938 247.621094 Z M 80.085938 247.621094 " fill-opacity="1" fill-rule="evenodd"/><g clip-path="url(#e606345990)"><path fill="#659639" d="M 169.21875 201.65625 C 169.21875 201.496094 169.203125 201.335938 169.1875 201.175781 C 169.1875 201.148438 169.179688 201.125 169.179688 201.097656 C 169.136719 200.777344 169.070312 200.46875 168.976562 200.164062 C 168.96875 200.148438 168.96875 200.128906 168.957031 200.105469 C 168.90625 199.953125 168.847656 199.800781 168.789062 199.65625 C 168.773438 199.625 168.757812 199.582031 168.738281 199.546875 C 168.527344 199.085938 168.257812 198.644531 167.921875 198.25 C 167.90625 198.234375 167.894531 198.214844 167.878906 198.199219 C 167.769531 198.082031 167.660156 197.964844 167.542969 197.84375 C 167.515625 197.820312 167.492188 197.804688 167.464844 197.777344 C 167.246094 197.574219 167.011719 197.398438 166.757812 197.230469 C 166.722656 197.210938 166.699219 197.1875 166.675781 197.171875 C 166.605469 197.128906 166.554688 197.085938 166.488281 197.042969 C 157.273438 191.800781 146.808594 189.007812 136.195312 188.976562 C 125.984375 188.941406 115.625 191.480469 106.097656 196.867188 C 105.394531 197.261719 104.703125 197.675781 104.023438 198.097656 C 103.542969 198.308594 103.101562 198.59375 102.707031 198.933594 C 94.757812 204.117188 88.390625 210.898438 83.777344 218.609375 C 78.878906 226.816406 75.964844 236.082031 75.246094 245.609375 L 65.304688 251.222656 C 62.699219 252.691406 61.78125 255.988281 63.25 258.589844 C 64.714844 261.195312 68.011719 262.117188 70.617188 260.648438 L 80.574219 255.023438 C 89.097656 259.316406 98.550781 261.601562 108.121094 261.636719 C 117.117188 261.667969 126.222656 259.695312 134.769531 255.554688 C 135.234375 255.394531 135.671875 255.175781 136.078125 254.898438 C 136.792969 254.527344 137.511719 254.148438 138.21875 253.753906 C 147.761719 248.363281 155.285156 240.792969 160.527344 232.015625 C 165.921875 222.996094 168.917969 212.683594 169.21875 202.152344 C 169.230469 202.011719 169.21875 201.875 169.21875 201.730469 C 169.21875 201.699219 169.21875 201.671875 169.21875 201.65625 Z M 152.054688 224.960938 L 142.660156 219.933594 L 157.097656 211.773438 C 156.035156 216.375 154.339844 220.8125 152.054688 224.960938 Z M 111.492188 206.242188 C 116.441406 203.460938 121.675781 201.605469 126.980469 200.636719 L 126.152344 216.824219 L 110.503906 225.667969 Z M 137.882812 199.859375 C 142.601562 200.039062 147.28125 200.878906 151.769531 202.347656 L 137.332031 210.5 Z M 93.085938 224.167969 C 95.066406 220.855469 97.453125 217.769531 100.195312 214.953125 L 99.324219 231.992188 L 87.210938 238.835938 C 88.398438 233.675781 90.363281 228.71875 93.085938 224.167969 Z M 108.109375 250.792969 C 102.816406 250.777344 97.5625 249.898438 92.539062 248.253906 L 104.652344 241.410156 L 119.722656 249.46875 C 115.882812 250.363281 111.988281 250.808594 108.109375 250.792969 Z M 132.972656 244.265625 L 115.824219 235.09375 L 131.492188 226.242188 L 145.773438 233.886719 C 142.199219 237.933594 137.914062 241.46875 132.972656 244.265625 Z M 334.242188 106.019531 C 334.242188 105.996094 334.242188 105.960938 334.234375 105.9375 C 334.234375 105.859375 334.226562 105.792969 334.226562 105.71875 C 334.21875 105.609375 334.21875 105.5 334.203125 105.398438 C 334.191406 105.339844 334.183594 105.269531 334.175781 105.210938 C 334.160156 105.09375 334.140625 104.976562 334.117188 104.867188 C 334.109375 104.816406 334.089844 104.773438 334.082031 104.730469 C 334.050781 104.605469 334.015625 104.476562 333.972656 104.351562 C 333.964844 104.316406 333.949219 104.285156 333.929688 104.25 C 333.882812 104.117188 333.832031 103.980469 333.78125 103.855469 C 333.761719 103.820312 333.746094 103.785156 333.738281 103.761719 C 333.679688 103.625 333.609375 103.5 333.542969 103.375 C 333.535156 103.367188 333.535156 103.347656 333.527344 103.339844 C 333.519531 103.324219 333.5 103.304688 333.492188 103.28125 C 333.402344 103.121094 333.289062 102.960938 333.179688 102.808594 C 333.148438 102.765625 333.113281 102.722656 333.089844 102.683594 C 332.960938 102.523438 332.835938 102.371094 332.691406 102.226562 C 332.648438 102.183594 332.609375 102.144531 332.566406 102.101562 C 332.457031 102 332.347656 101.898438 332.230469 101.804688 C 332.144531 101.738281 332.050781 101.671875 331.96875 101.613281 C 331.90625 101.570312 331.839844 101.527344 331.78125 101.484375 C 331.707031 101.433594 331.636719 101.382812 331.5625 101.339844 L 190.222656 19.738281 C 188.476562 18.726562 186.394531 18.800781 184.765625 19.746094 L 43.453125 101.332031 C 41.605469 102.402344 40.636719 104.386719 40.761719 106.382812 L 40.761719 269.222656 C 40.761719 271.09375 41.742188 272.917969 43.476562 273.917969 L 184.363281 355.253906 C 184.378906 355.261719 184.386719 355.273438 184.40625 355.28125 C 184.597656 355.414062 184.800781 355.535156 185.011719 355.644531 C 185.0625 355.667969 185.113281 355.695312 185.164062 355.71875 C 185.355469 355.8125 185.550781 355.894531 185.753906 355.964844 C 185.789062 355.972656 185.820312 355.988281 185.863281 356.003906 C 186.089844 356.082031 186.328125 356.132812 186.570312 356.175781 C 186.628906 356.183594 186.691406 356.191406 186.757812 356.199219 C 187 356.234375 187.253906 356.257812 187.507812 356.257812 C 187.515625 356.257812 187.515625 356.257812 187.523438 356.257812 C 187.785156 356.257812 188.046875 356.234375 188.292969 356.199219 C 188.351562 356.191406 188.402344 356.183594 188.460938 356.175781 C 188.703125 356.132812 188.949219 356.074219 189.175781 356.003906 C 189.203125 355.996094 189.234375 355.988281 189.261719 355.972656 C 189.472656 355.894531 189.683594 355.8125 189.875 355.71875 C 189.917969 355.695312 189.96875 355.675781 190.011719 355.652344 C 190.222656 355.542969 190.433594 355.414062 190.625 355.28125 C 190.636719 355.273438 190.652344 355.261719 190.660156 355.253906 L 331.546875 273.917969 C 333.28125 272.925781 334.261719 271.09375 334.261719 269.222656 Z M 57.019531 106.03125 L 96.070312 83.484375 L 226.550781 158.816406 L 199.683594 174.332031 L 187.507812 181.363281 L 177.027344 175.308594 Z M 140.394531 57.886719 L 270.867188 133.21875 L 237.386719 152.554688 L 106.921875 77.21875 Z M 243.742188 161.851562 C 254.59375 155.5625 265.4375 149.238281 276.269531 142.90625 L 276.269531 165.46875 L 243.742188 184.253906 Z M 187.507812 30.6875 L 317.988281 106.03125 L 281.707031 126.972656 L 151.226562 51.640625 Z M 51.597656 115.414062 L 177.003906 187.804688 L 182.070312 190.730469 L 182.070312 341.417969 L 51.589844 266.09375 Z M 192.945312 341.417969 L 192.945312 190.769531 C 206.265625 183.351562 219.570312 175.773438 232.867188 168.117188 L 232.867188 193.636719 C 232.867188 196.640625 235.304688 199.074219 238.304688 199.074219 C 239.476562 199.074219 240.566406 198.703125 241.449219 198.074219 L 284.414062 173.269531 C 286.152344 172.273438 287.128906 170.445312 287.128906 168.570312 L 287.15625 168.570312 L 287.15625 136.542969 C 299.253906 129.46875 311.34375 122.410156 323.417969 115.414062 L 323.425781 266.085938 Z M 255.335938 227.4375 C 254.300781 227.4375 253.339844 227.726562 252.511719 228.230469 L 211.191406 252.082031 C 209.453125 253.078125 208.476562 254.90625 208.476562 256.777344 L 208.449219 256.777344 L 208.449219 304.632812 C 208.449219 307.636719 210.886719 310.074219 213.886719 310.074219 C 215.019531 310.074219 216.0625 309.726562 216.933594 309.136719 L 258.050781 285.394531 C 259.878906 284.339844 260.859375 282.367188 260.75 280.394531 L 260.75 232.84375 C 260.75 229.859375 258.328125 227.4375 255.335938 227.4375 Z M 219.335938 295.234375 L 219.335938 259.890625 L 249.921875 242.226562 L 249.921875 277.570312 Z M 219.335938 295.234375 " fill-opacity="1" fill-rule="nonzero"/></g></svg>