<svg xmlns="http://www.w3.org/2000/svg" xmlns:xlink="http://www.w3.org/1999/xlink" width="500" zoomAndPan="magnify" viewBox="0 0 375 374.999991" height="500" preserveAspectRatio="xMidYMid meet" version="1.0"><defs><g/><clipPath id="86cfaef702"><path d="M 84.121094 134.070312 L 283.957031 134.070312 L 283.957031 363.425781 L 84.121094 363.425781 Z M 84.121094 134.070312 " clip-rule="nonzero"/></clipPath></defs><path fill="#21203d" d="M 183.25 139.945312 L 88.90625 195.601562 L 87.679688 306.375 L 183.113281 361.082031 L 280.179688 306.511719 L 279.640625 195.742188 Z M 183.25 139.945312 " fill-opacity="1" fill-rule="evenodd"/><path fill="#659639" d="M 218.292969 254.117188 L 248.429688 238.503906 L 247.75 214.207031 L 153.410156 158.546875 L 122.492188 175.789062 L 218.304688 232.527344 Z M 218.292969 254.117188 " fill-opacity="1" fill-rule="evenodd"/><path fill="#fff8ea" d="M 230.355469 312.285156 L 201.984375 328.167969 L 202.121094 295.996094 L 229.953125 279.976562 Z M 110.988281 289.496094 C 141.128906 302.191406 159.769531 291.289062 166.917969 256.78125 C 134.863281 249.28125 116.222656 260.183594 110.988281 289.496094 Z M 110.988281 289.496094 " fill-opacity="1" fill-rule="evenodd"/><g clip-path="url(#86cfaef702)"><path fill="#fff8ea" d="M 171.519531 258.28125 C 171.519531 258.171875 171.507812 258.0625 171.496094 257.953125 C 171.496094 257.9375 171.492188 257.921875 171.492188 257.902344 C 171.460938 257.6875 171.417969 257.472656 171.355469 257.269531 C 171.347656 257.257812 171.347656 257.246094 171.34375 257.226562 C 171.308594 257.125 171.269531 257.019531 171.226562 256.925781 C 171.214844 256.902344 171.203125 256.871094 171.191406 256.851562 C 171.050781 256.535156 170.867188 256.238281 170.636719 255.96875 C 170.625 255.957031 170.621094 255.945312 170.609375 255.933594 C 170.535156 255.851562 170.460938 255.773438 170.378906 255.691406 C 170.363281 255.675781 170.347656 255.664062 170.328125 255.648438 C 170.179688 255.511719 170.019531 255.390625 169.847656 255.273438 C 169.824219 255.265625 169.808594 255.246094 169.789062 255.234375 C 169.746094 255.207031 169.710938 255.179688 169.664062 255.148438 C 163.40625 251.589844 156.300781 249.691406 149.09375 249.667969 C 142.160156 249.648438 135.121094 251.371094 128.652344 255.027344 C 128.175781 255.296875 127.707031 255.578125 127.242188 255.863281 C 126.917969 256.007812 126.621094 256.203125 126.351562 256.433594 C 120.953125 259.953125 116.628906 264.554688 113.496094 269.796875 C 110.171875 275.367188 108.1875 281.660156 107.703125 288.128906 L 100.953125 291.941406 C 99.183594 292.9375 98.558594 295.175781 99.554688 296.945312 C 100.550781 298.714844 102.789062 299.339844 104.558594 298.34375 L 111.320312 294.523438 C 117.109375 297.4375 123.527344 298.988281 130.027344 299.011719 C 136.136719 299.035156 142.320312 297.695312 148.125 294.882812 C 148.441406 294.777344 148.738281 294.625 149.011719 294.4375 C 149.5 294.1875 149.984375 293.929688 150.46875 293.660156 C 156.949219 290 162.054688 284.859375 165.617188 278.898438 C 169.28125 272.773438 171.3125 265.769531 171.519531 258.617188 C 171.527344 258.523438 171.519531 258.429688 171.519531 258.332031 C 171.519531 258.308594 171.519531 258.292969 171.519531 258.28125 Z M 159.863281 274.105469 L 153.484375 270.695312 L 163.285156 265.152344 C 162.566406 268.277344 161.414062 271.289062 159.863281 274.105469 Z M 132.316406 261.394531 C 135.675781 259.507812 139.234375 258.246094 142.835938 257.589844 L 142.273438 268.582031 L 131.648438 274.585938 Z M 150.238281 257.0625 C 153.445312 257.183594 156.621094 257.753906 159.667969 258.75 L 149.867188 264.289062 Z M 119.816406 273.566406 C 121.164062 271.316406 122.785156 269.222656 124.644531 267.308594 L 124.054688 278.882812 L 115.828125 283.53125 C 116.632812 280.027344 117.96875 276.660156 119.816406 273.566406 Z M 130.019531 291.648438 C 126.425781 291.636719 122.859375 291.042969 119.445312 289.925781 L 127.671875 285.277344 L 137.90625 290.75 C 135.300781 291.359375 132.65625 291.660156 130.019531 291.648438 Z M 146.90625 287.21875 L 135.257812 280.988281 L 145.898438 274.976562 L 155.597656 280.167969 C 153.167969 282.917969 150.261719 285.316406 146.90625 287.21875 Z M 283.585938 193.335938 C 283.585938 193.320312 283.585938 193.296875 283.582031 193.277344 C 283.582031 193.226562 283.574219 193.179688 283.574219 193.128906 C 283.570312 193.054688 283.570312 192.980469 283.558594 192.914062 C 283.550781 192.871094 283.546875 192.828125 283.539062 192.785156 C 283.527344 192.707031 283.515625 192.625 283.5 192.550781 C 283.496094 192.515625 283.484375 192.488281 283.476562 192.460938 C 283.453125 192.375 283.429688 192.289062 283.402344 192.203125 C 283.398438 192.179688 283.386719 192.15625 283.375 192.132812 C 283.339844 192.042969 283.304688 191.949219 283.269531 191.863281 C 283.257812 191.839844 283.25 191.820312 283.242188 191.800781 C 283.203125 191.710938 283.15625 191.625 283.109375 191.539062 C 283.105469 191.53125 283.105469 191.519531 283.097656 191.515625 C 283.09375 191.503906 283.082031 191.492188 283.078125 191.476562 C 283.011719 191.367188 282.9375 191.257812 282.863281 191.15625 C 282.839844 191.125 282.820312 191.097656 282.800781 191.070312 C 282.714844 190.960938 282.628906 190.855469 282.53125 190.757812 C 282.503906 190.730469 282.476562 190.703125 282.445312 190.671875 C 282.371094 190.605469 282.296875 190.535156 282.21875 190.472656 C 282.160156 190.425781 282.097656 190.382812 282.039062 190.339844 C 282 190.3125 281.953125 190.285156 281.914062 190.253906 C 281.863281 190.222656 281.816406 190.1875 281.765625 190.160156 L 185.78125 134.742188 C 184.597656 134.054688 183.183594 134.105469 182.078125 134.746094 L 86.113281 190.152344 C 84.859375 190.878906 84.199219 192.226562 84.285156 193.582031 L 84.285156 304.164062 C 84.285156 305.4375 84.949219 306.671875 86.128906 307.355469 L 181.804688 362.589844 C 181.8125 362.59375 181.820312 362.601562 181.832031 362.605469 C 181.964844 362.699219 182.101562 362.777344 182.242188 362.851562 C 182.277344 362.871094 182.3125 362.886719 182.347656 362.902344 C 182.476562 362.96875 182.609375 363.023438 182.746094 363.070312 C 182.769531 363.074219 182.792969 363.085938 182.820312 363.097656 C 182.976562 363.148438 183.136719 363.183594 183.304688 363.214844 C 183.34375 363.21875 183.382812 363.226562 183.429688 363.230469 C 183.59375 363.253906 183.765625 363.269531 183.9375 363.269531 C 183.945312 363.269531 183.945312 363.269531 183.949219 363.269531 C 184.128906 363.269531 184.304688 363.253906 184.472656 363.230469 C 184.511719 363.226562 184.546875 363.21875 184.585938 363.214844 C 184.75 363.183594 184.917969 363.144531 185.070312 363.097656 C 185.089844 363.09375 185.113281 363.085938 185.128906 363.074219 C 185.273438 363.023438 185.414062 362.96875 185.546875 362.902344 C 185.574219 362.886719 185.609375 362.875 185.640625 362.859375 C 185.78125 362.785156 185.925781 362.699219 186.058594 362.605469 C 186.0625 362.601562 186.074219 362.59375 186.078125 362.589844 L 281.753906 307.355469 C 282.933594 306.679688 283.597656 305.4375 283.597656 304.164062 Z M 95.324219 193.339844 L 121.84375 178.03125 L 210.453125 229.191406 L 192.207031 239.722656 L 183.9375 244.5 L 176.820312 240.390625 Z M 151.945312 160.648438 L 240.546875 211.808594 L 217.8125 224.933594 L 129.214844 173.777344 Z M 222.128906 231.25 C 229.496094 226.980469 236.859375 222.683594 244.21875 218.386719 L 244.21875 233.707031 L 222.128906 246.464844 Z M 183.9375 142.179688 L 272.546875 193.339844 L 247.910156 207.5625 L 159.300781 156.40625 Z M 91.640625 199.714844 L 176.804688 248.875 L 180.246094 250.859375 L 180.246094 353.195312 L 91.636719 302.042969 Z M 187.632812 353.195312 L 187.632812 250.890625 C 196.679688 245.851562 205.710938 240.703125 214.742188 235.503906 L 214.742188 252.835938 C 214.742188 254.875 216.398438 256.527344 218.433594 256.527344 C 219.230469 256.527344 219.96875 256.277344 220.570312 255.847656 L 249.746094 239.003906 C 250.925781 238.328125 251.589844 237.085938 251.589844 235.8125 L 251.609375 235.8125 L 251.609375 214.0625 C 259.824219 209.257812 268.035156 204.464844 276.234375 199.714844 L 276.238281 302.035156 Z M 230 275.789062 C 229.296875 275.789062 228.644531 275.984375 228.082031 276.328125 L 200.023438 292.527344 C 198.84375 293.203125 198.179688 294.445312 198.179688 295.714844 L 198.160156 295.714844 L 198.160156 328.214844 C 198.160156 330.25 199.816406 331.90625 201.855469 331.90625 C 202.621094 331.90625 203.332031 331.671875 203.921875 331.269531 L 231.84375 315.148438 C 233.085938 314.433594 233.75 313.09375 233.675781 311.753906 L 233.675781 279.460938 C 233.675781 277.433594 232.03125 275.789062 230 275.789062 Z M 205.550781 321.828125 L 205.550781 297.828125 L 226.324219 285.832031 L 226.324219 309.835938 Z M 205.550781 321.828125 " fill-opacity="1" fill-rule="nonzero"/></g><g fill="#fff8ea" fill-opacity="1"><g transform="translate(58.840638, 143.816841)"><g><path d="M 18.671875 -13.328125 C 16.710938 -11.929688 15.15625 -10.84375 14 -10.0625 C 12.84375 -9.28125 11.914062 -8.691406 11.21875 -8.296875 C 10.53125 -7.898438 10.007812 -7.597656 9.65625 -7.390625 C 9.300781 -7.179688 8.894531 -7 8.4375 -6.84375 C 6.875 -6.300781 5.382812 -6.148438 3.96875 -6.390625 C 2.550781 -6.628906 1.019531 -7.378906 -0.625 -8.640625 C -2.269531 -9.910156 -4.101562 -11.769531 -6.125 -14.21875 C -8.144531 -16.664062 -10.554688 -19.851562 -13.359375 -23.78125 L -27.34375 -43.375 C -28 -44.289062 -28.703125 -45.335938 -29.453125 -46.515625 C -30.203125 -47.691406 -30.925781 -48.863281 -31.625 -50.03125 C -32.320312 -51.207031 -32.960938 -52.300781 -33.546875 -53.3125 C -34.128906 -54.332031 -34.554688 -55.160156 -34.828125 -55.796875 C -35.929688 -58.253906 -36.410156 -60.390625 -36.265625 -62.203125 C -36.128906 -64.015625 -35.375 -65.78125 -34 -67.5 C -33.675781 -67.820312 -33.335938 -68.15625 -32.984375 -68.5 C -32.628906 -68.84375 -32.148438 -69.273438 -31.546875 -69.796875 C -30.953125 -70.328125 -30.144531 -70.976562 -29.125 -71.75 C -28.101562 -72.519531 -26.765625 -73.5 -25.109375 -74.6875 L -9.75 -85.640625 L -0.234375 -72.296875 L -15.40625 -61.46875 L -7.796875 -50.796875 L 7.375 -61.625 L 16.890625 -48.296875 L 1.71875 -37.46875 L 9.34375 -26.796875 L 24.515625 -37.625 L 34.03125 -24.28125 Z M 18.671875 -13.328125 "/></g></g></g><g fill="#fff8ea" fill-opacity="1"><g transform="translate(92.905581, 119.590266)"><g><path d="M 20.9375 -9.359375 C 18.738281 -8.378906 16.992188 -7.617188 15.703125 -7.078125 C 14.421875 -6.546875 13.398438 -6.15625 12.640625 -5.90625 C 11.890625 -5.65625 11.316406 -5.457031 10.921875 -5.3125 C 10.535156 -5.175781 10.101562 -5.082031 9.625 -5.03125 C 7.988281 -4.800781 6.5 -4.941406 5.15625 -5.453125 C 3.820312 -5.972656 2.472656 -7.019531 1.109375 -8.59375 C -0.253906 -10.164062 -1.6875 -12.351562 -3.1875 -15.15625 C -4.6875 -17.957031 -6.421875 -21.5625 -8.390625 -25.96875 L -18.203125 -47.9375 C -18.640625 -48.894531 -19.117188 -50.039062 -19.640625 -51.375 C -20.160156 -52.707031 -20.644531 -54.015625 -21.09375 -55.296875 C -21.539062 -56.585938 -21.957031 -57.804688 -22.34375 -58.953125 C -22.726562 -60.097656 -22.976562 -60.976562 -23.09375 -61.59375 C -23.6875 -64.21875 -23.734375 -66.398438 -23.234375 -68.140625 C -22.742188 -69.890625 -21.648438 -71.472656 -19.953125 -72.890625 C -19.585938 -73.148438 -19.191406 -73.410156 -18.765625 -73.671875 C -18.347656 -73.941406 -17.789062 -74.269531 -17.09375 -74.65625 C -16.40625 -75.050781 -15.484375 -75.53125 -14.328125 -76.09375 C -13.179688 -76.65625 -11.679688 -77.347656 -9.828125 -78.171875 L 1.9375 -83.4375 L 8.625 -68.46875 L 5.3125 -66.984375 C 4.082031 -66.429688 3.097656 -65.96875 2.359375 -65.59375 C 1.617188 -65.226562 1.019531 -64.898438 0.5625 -64.609375 C 0.113281 -64.328125 -0.210938 -64.015625 -0.421875 -63.671875 C -0.640625 -63.335938 -0.828125 -62.96875 -0.984375 -62.5625 C -1.335938 -61.664062 -1.398438 -60.789062 -1.171875 -59.9375 C -0.953125 -59.082031 -0.289062 -57.414062 0.8125 -54.9375 L 10.734375 -32.765625 C 11.835938 -30.285156 12.648438 -28.691406 13.171875 -27.984375 C 13.703125 -27.273438 14.378906 -26.734375 15.203125 -26.359375 C 15.640625 -26.140625 16.046875 -26.007812 16.421875 -25.96875 C 16.804688 -25.9375 17.253906 -25.992188 17.765625 -26.140625 C 18.285156 -26.285156 18.929688 -26.507812 19.703125 -26.8125 C 20.472656 -27.125 21.472656 -27.554688 22.703125 -28.109375 L 26.53125 -29.828125 L 33.21875 -14.859375 Z M 20.9375 -9.359375 "/></g></g></g><g fill="#fff8ea" fill-opacity="1"><g transform="translate(123.312838, 104.499462)"><g><path d="M 22.484375 -4.546875 C 18.054688 -3.648438 14.378906 -3.578125 11.453125 -4.328125 C 8.535156 -5.085938 6.125 -6.738281 4.21875 -9.28125 C 3.382812 -10.40625 2.648438 -11.578125 2.015625 -12.796875 C 1.390625 -14.015625 0.800781 -15.429688 0.25 -17.046875 C -0.300781 -18.671875 -0.851562 -20.554688 -1.40625 -22.703125 C -1.96875 -24.859375 -2.5625 -27.488281 -3.1875 -30.59375 L -5.984375 -44.4375 C -6.609375 -47.539062 -7.082031 -50.191406 -7.40625 -52.390625 C -7.738281 -54.597656 -7.960938 -56.550781 -8.078125 -58.25 C -8.191406 -59.957031 -8.191406 -61.492188 -8.078125 -62.859375 C -7.972656 -64.222656 -7.757812 -65.597656 -7.4375 -66.984375 C -6.664062 -70.054688 -5.078125 -72.503906 -2.671875 -74.328125 C -0.273438 -76.160156 3.132812 -77.523438 7.5625 -78.421875 L 16.421875 -80.203125 C 20.859375 -81.097656 24.535156 -81.164062 27.453125 -80.40625 C 30.367188 -79.65625 32.769531 -78.015625 34.65625 -75.484375 C 35.507812 -74.335938 36.25 -73.15625 36.875 -71.9375 C 37.507812 -70.726562 38.101562 -69.3125 38.65625 -67.6875 C 39.21875 -66.070312 39.773438 -64.1875 40.328125 -62.03125 C 40.878906 -59.882812 41.46875 -57.257812 42.09375 -54.15625 L 44.890625 -40.3125 C 45.515625 -37.207031 45.992188 -34.550781 46.328125 -32.34375 C 46.660156 -30.144531 46.878906 -28.191406 46.984375 -26.484375 C 47.097656 -24.785156 47.097656 -23.25 46.984375 -21.875 C 46.878906 -20.507812 46.65625 -19.144531 46.3125 -17.78125 C 45.5625 -14.695312 43.988281 -12.238281 41.59375 -10.40625 C 39.195312 -8.582031 35.78125 -7.222656 31.34375 -6.328125 Z M 20.46875 -59 C 20.113281 -60.769531 19.4375 -62.113281 18.4375 -63.03125 C 17.445312 -63.945312 16.320312 -64.28125 15.0625 -64.03125 C 13.8125 -63.78125 12.910156 -63.039062 12.359375 -61.8125 C 11.804688 -60.582031 11.707031 -59.082031 12.0625 -57.3125 L 18.484375 -25.53125 C 18.859375 -23.6875 19.535156 -22.328125 20.515625 -21.453125 C 21.492188 -20.578125 22.609375 -20.265625 23.859375 -20.515625 C 25.117188 -20.765625 26.03125 -21.484375 26.59375 -22.671875 C 27.164062 -23.859375 27.265625 -25.375 26.890625 -27.21875 Z M 20.46875 -59 "/></g></g></g><g fill="#fff8ea" fill-opacity="1"><g transform="translate(171.907079, 93.948641)"><g><path d="M 8.21875 -75.015625 L 36.640625 -73.28125 C 38.671875 -73.15625 40.242188 -73.035156 41.359375 -72.921875 C 42.484375 -72.816406 43.363281 -72.742188 44 -72.703125 C 44.644531 -72.671875 45.097656 -72.625 45.359375 -72.5625 C 45.628906 -72.507812 45.945312 -72.4375 46.3125 -72.34375 C 50.707031 -71.382812 53.59375 -69.242188 54.96875 -65.921875 C 55.5 -64.609375 55.8125 -62.265625 55.90625 -58.890625 C 56 -55.523438 55.90625 -51.476562 55.625 -46.75 L 54.375 -26.4375 C 54.144531 -22.601562 53.804688 -18.890625 53.359375 -15.296875 C 52.910156 -11.703125 52.429688 -8.828125 51.921875 -6.671875 C 50.492188 -0.722656 46.988281 2.269531 41.40625 2.3125 C 41.175781 2.300781 40.457031 2.273438 39.25 2.234375 C 38.039062 2.203125 35.632812 2.109375 32.03125 1.953125 L 3.609375 0.21875 Z M 28.421875 -14.90625 C 30.523438 -14.769531 31.90625 -15.097656 32.5625 -15.890625 C 33.21875 -16.679688 33.628906 -18.429688 33.796875 -21.140625 L 35.5625 -50.234375 C 35.738281 -53.015625 35.550781 -54.835938 35 -55.703125 C 34.445312 -56.566406 33.117188 -57.066406 31.015625 -57.203125 L 27.40625 -57.421875 L 24.8125 -15.125 Z M 28.421875 -14.90625 "/></g></g></g><g fill="#fff8ea" fill-opacity="1"><g transform="translate(222.998081, 97.198005)"><g><path d="M 21.921875 6.765625 C 19.617188 6.054688 17.804688 5.476562 16.484375 5.03125 C 15.160156 4.582031 14.128906 4.203125 13.390625 3.890625 C 12.660156 3.585938 12.101562 3.359375 11.71875 3.203125 C 11.34375 3.046875 10.957031 2.832031 10.5625 2.5625 C 9.1875 1.65625 8.160156 0.566406 7.484375 -0.703125 C 6.816406 -1.972656 6.488281 -3.648438 6.5 -5.734375 C 6.507812 -7.816406 6.875 -10.398438 7.59375 -13.484375 C 8.320312 -16.578125 9.398438 -20.429688 10.828125 -25.046875 L 17.921875 -48.03125 C 18.253906 -49.113281 18.660156 -50.304688 19.140625 -51.609375 C 19.617188 -52.921875 20.113281 -54.210938 20.625 -55.484375 C 21.132812 -56.753906 21.613281 -57.925781 22.0625 -59 C 22.519531 -60.082031 22.921875 -60.925781 23.265625 -61.53125 C 24.546875 -63.882812 25.945312 -65.550781 27.46875 -66.53125 C 29 -67.519531 30.863281 -67.992188 33.0625 -67.953125 C 33.519531 -67.898438 33.992188 -67.835938 34.484375 -67.765625 C 34.972656 -67.691406 35.601562 -67.570312 36.375 -67.40625 C 37.15625 -67.25 38.160156 -67 39.390625 -66.65625 C 40.628906 -66.3125 42.222656 -65.84375 44.171875 -65.25 L 62.203125 -59.671875 L 57.375 -44.015625 L 39.5625 -49.515625 L 35.6875 -36.984375 L 53.5 -31.484375 L 48.65625 -15.84375 L 30.84375 -21.34375 L 26.984375 -8.8125 L 44.796875 -3.3125 L 39.953125 12.34375 Z M 21.921875 6.765625 "/></g></g></g><g fill="#fff8ea" fill-opacity="1"><g transform="translate(262.960901, 109.665128)"><g><path d="M 30.03125 -47.75 C 32.175781 -51.707031 33.859375 -55.003906 35.078125 -57.640625 C 36.296875 -60.285156 37.320312 -62.757812 38.15625 -65.0625 L 58.515625 -54.015625 C 56.535156 -51.640625 54.703125 -49.21875 53.015625 -46.75 C 51.335938 -44.28125 49.691406 -41.554688 48.078125 -38.578125 L 28.765625 -3.03125 L 41.0625 2.75 L 29.6875 16.109375 L 3.171875 1.71875 Z M 30.03125 -47.75 "/></g></g></g><g fill="#fff8ea" fill-opacity="1"><g transform="translate(293.816125, 126.697506)"><g><path d="M 48.921875 -57.46875 L 64.9375 -45.109375 L 18.875 14.5625 L 2.859375 2.203125 Z M 48.921875 -57.46875 "/></g></g></g></svg>